<svg id="Layer_1" data-name="Layer 1" xmlns="http://www.w3.org/2000/svg" width="176" height="36.185" viewBox="0 0 176 36.185">
  <path id="Path_2992" data-name="Path 2992" d="M193.842,44.582V55.826H192V44.582c0-3.325-1.915-5.495-5.315-5.495-3.55,0-6.326,2.314-6.326,7.195v9.544H178.55V30.52h1.807V41.184a6.808,6.808,0,0,1,6.474-3.83C191.131,37.353,193.842,40.208,193.842,44.582Z" transform="translate(-141.261 -24.146)" fill="#e6e6e6"/>
  <path id="Path_2993" data-name="Path 2993" d="M285.291,72.747c0,.288-.035.578-.035.867H268.88a7.364,7.364,0,0,0,7.665,6.76,6.874,6.874,0,0,0,6.253-3.289l1.591.94a8.91,8.91,0,0,1-7.882,4.085,9.435,9.435,0,0,1-.144-18.869C281.857,63.24,285.291,67.795,285.291,72.747Zm-16.411-.9h14.531c-.4-4.411-3.507-6.869-7.049-6.869A7.287,7.287,0,0,0,268.88,71.842Z" transform="translate(-211.238 -50.033)" fill="#e6e6e6"/>
  <path id="Path_2994" data-name="Path 2994" d="M371.54,25.33h1.809V51.72H371.54Z" transform="translate(-293.946 -20.04)" fill="#e6e6e6"/>
  <path id="Path_2995" data-name="Path 2995" d="M403.57,25.33h1.807V51.72H403.57Z" transform="translate(-319.286 -20.04)" fill="#e6e6e6"/>
  <path id="Path_2996" data-name="Path 2996" d="M429.7,72.674a9.49,9.49,0,1,1,9.509,9.436A9.366,9.366,0,0,1,429.7,72.674Zm17.136,0a7.579,7.579,0,0,0-7.627-7.7,7.7,7.7,0,1,0,0,15.4A7.579,7.579,0,0,0,446.836,72.674Z" transform="translate(-339.959 -50.033)" fill="#e6e6e6"/>
  <path id="Path_2997" data-name="Path 2997" d="M532.816,47.741v11.75c0,3.181,1.7,3.254,5.386,2.924v1.627c-4.728.727-7.234-.43-7.234-4.551V47.741H527V45.97h3.968V41.451l1.844-.541v5.06H538.2v1.771Z" transform="translate(-416.939 -32.366)" fill="#e6e6e6"/>
  <path id="Path_2998" data-name="Path 2998" d="M605.743,63.633V81.708H603.9V77.623a8.684,8.684,0,0,1-7.773,4.482,9.435,9.435,0,1,1,0-18.87,8.683,8.683,0,0,1,7.773,4.483V63.633ZM603.9,72.67a7.577,7.577,0,0,0-7.627-7.7,7.7,7.7,0,0,0,0,15.4A7.577,7.577,0,0,0,603.9,72.67Z" transform="translate(-464.163 -50.029)" fill="#e6e6e6"/>
  <path id="Path_2999" data-name="Path 2999" d="M709.073,76.966c0,2.966-2.6,5.133-6.474,5.133-3.615,0-6-1.7-6.869-4.012l1.556-.9c.65,1.953,2.6,3.181,5.313,3.181,2.531,0,4.664-1.119,4.664-3.4,0-4.916-10.954-2.088-10.954-8.6,0-2.857,2.458-5.133,6.146-5.133a6.394,6.394,0,0,1,6.146,3.615l-1.516.869a4.725,4.725,0,0,0-4.628-2.748c-2.349,0-4.338,1.23-4.338,3.4C698.119,73.207,709.073,70.354,709.073,76.966Z" transform="translate(-550.43 -50.025)" fill="#e6e6e6"/>
  <path id="Path_3000" data-name="Path 3000" d="M787.8,55.826l-9.58-8.893v8.893H776.41V30.52h1.807V45.956l9.145-8.206H789.9l-9.724,8.675,10.085,9.4Z" transform="translate(-614.26 -24.146)" fill="#e6e6e6"/>
  <path id="Path_3001" data-name="Path 3001" d="M8.237,90.684H0V70.89c1.7,3.5,3.517,7.383,4.858,10.674C6.155,84.736,7.3,87.875,8.237,90.684Z" transform="translate(0 -56.085)" fill="#e6e6e6"/>
  <path id="Path_3002" data-name="Path 3002" d="M30.218,21V34.318c-.94.031-1.938.05-2.984.05a73.038,73.038,0,0,1-11.67-.881C8.55,32.34,3.55,29.9,0,27.057V21H8.093l-.031.186a7.76,7.76,0,0,0-.109,1.335,8.433,8.433,0,0,0,8.433,8.433A8.426,8.426,0,0,0,24.685,21Z" transform="translate(0 -16.614)" fill="#e6e6e6"/>
  <path id="Path_3003" data-name="Path 3003" d="M88.115,98.21V112.3H73.18a35.623,35.623,0,0,1,4.217-5.271A50.823,50.823,0,0,1,88.115,98.21Z" transform="translate(-57.897 -77.699)" fill="#e6e6e6"/>
  <path id="Path_3004" data-name="Path 3004" d="M62.012,5.9a5.889,5.889,0,0,1-4.469,5.729,5.994,5.994,0,0,1-1.433.175A5.82,5.82,0,0,1,52.4,10.492,5.877,5.877,0,0,1,50.21,5.9a5.374,5.374,0,0,1,.069-.886V4.97a5.221,5.221,0,0,1,.127-.585A5.9,5.9,0,0,1,62.012,5.9Z" transform="translate(-39.724 0)" fill="#e6e6e6"/>
  <path id="Path_3005" data-name="Path 3005" d="M37.894,79A60.981,60.981,0,0,0,29.619,86.3a38.131,38.131,0,0,0-5.382,7.03c-.322.541-.627,1.071-.89,1.585-.163-.514-.332-1.044-.51-1.585-1.044-3.156-2.31-6.683-3.7-10.081-1.147-2.8-2.608-5.99-4.052-9.016a39.332,39.332,0,0,0,12,3.87,73.772,73.772,0,0,0,10.8.9Z" transform="translate(-11.939 -58.727)" fill="#e6e6e6"/>
</svg>
